<svg width="20" height="20" viewBox="0 0 20 20" fill="none" xmlns="http://www.w3.org/2000/svg">
<path d="M7.47499 16.6062C7.46734 16.5844 7.45568 16.5643 7.44062 16.5468C7.43312 16.5302 7.42365 16.5144 7.41249 16.5L3.51562 12.6C3.50227 12.5888 3.48755 12.5794 3.47187 12.5718C3.45327 12.5567 3.43209 12.5451 3.40937 12.5375H3.36562H3.29999C3.27821 12.5345 3.25615 12.5345 3.23437 12.5375H3.18437C3.15959 12.5502 3.13649 12.5659 3.11562 12.5843H3.09062C3.0731 12.6053 3.05839 12.6284 3.04687 12.6531L3.02499 12.6875L1.02812 18.575C1.0117 18.6233 1.00739 18.675 1.01555 18.7254C1.02372 18.7758 1.04411 18.8234 1.07495 18.8641C1.10578 18.9048 1.14612 18.9373 1.19243 18.9588C1.23875 18.9804 1.28963 18.9902 1.34062 18.9875C1.3738 18.992 1.40744 18.992 1.44062 18.9875L7.29374 17.0187L7.32812 16.9968C7.35302 16.9843 7.37615 16.9686 7.39687 16.95C7.40277 16.9421 7.40799 16.9337 7.41249 16.925C7.43093 16.9041 7.44668 16.881 7.45937 16.8562C7.46077 16.8396 7.46077 16.8228 7.45937 16.8062C7.46234 16.7844 7.46234 16.7624 7.45937 16.7406C7.4609 16.7188 7.4609 16.6968 7.45937 16.675C7.47812 16.6343 7.47812 16.6218 7.47499 16.6062Z" fill="#FCBA28"/>
<path d="M18.3906 1.60935C17.816 1.03667 17.0378 0.715103 16.2266 0.715103C15.4153 0.715103 14.6371 1.03667 14.0625 1.60935L13.6031 2.07185C13.5736 2.10079 13.5501 2.1353 13.534 2.17339C13.5179 2.21148 13.5095 2.25238 13.5094 2.29373C13.5091 2.33485 13.517 2.37562 13.5326 2.41369C13.5481 2.45177 13.571 2.4864 13.6 2.5156L17.5 6.39997C17.5303 6.42991 17.5665 6.45328 17.6062 6.46872H17.6406C17.667 6.47722 17.6942 6.48247 17.7219 6.48434C17.7632 6.48419 17.8041 6.47581 17.8422 6.45972C17.8803 6.44362 17.9148 6.42013 17.9437 6.39059L18.3906 5.93747C18.9631 5.36338 19.2846 4.58572 19.2846 3.77497C19.2846 2.96423 18.9631 2.18656 18.3906 1.61247V1.60935Z" fill="#ED203D"/>
<path d="M17.9281 5.95625L14.0437 2.07188C14.0147 2.04259 13.9801 2.01934 13.9421 2.00348C13.904 1.98762 13.8631 1.97945 13.8219 1.97945C13.7806 1.97945 13.7398 1.98762 13.7017 2.00348C13.6636 2.01934 13.629 2.04259 13.6 2.07188L3.07187 12.6C3.04258 12.6291 3.01933 12.6636 3.00347 12.7017C2.9876 12.7398 2.97943 12.7806 2.97943 12.8219C2.97943 12.8631 2.9876 12.904 3.00347 12.9421C3.01933 12.9802 3.04258 13.0147 3.07187 13.0438L6.95625 16.9281C6.98544 16.9571 7.02006 16.98 7.05816 16.9956C7.09622 17.0111 7.137 17.019 7.17812 17.0187C7.21925 17.019 7.26 17.0111 7.29809 16.9956C7.33616 16.98 7.37078 16.9571 7.4 16.9281L17.9281 6.4C17.9574 6.37097 17.9807 6.33641 17.9965 6.29831C18.0124 6.26022 18.0206 6.21937 18.0206 6.17812C18.0206 6.13687 18.0124 6.09603 17.9965 6.05797C17.9807 6.01987 17.9574 5.98531 17.9281 5.95625Z" fill="#E6E6E6"/>
<path d="M19.2875 3.77187C19.2878 3.16637 19.1084 2.57441 18.7721 2.07092C18.4357 1.56744 17.9576 1.17508 17.3981 0.943528C16.8386 0.711974 16.223 0.651646 15.6292 0.770178C15.0354 0.888706 14.4902 1.18077 14.0625 1.60938L3.075 12.6C3.04283 12.6328 3.01829 12.6723 3.00312 12.7156L1.03125 18.575C1.01344 18.6298 1.01114 18.6885 1.0246 18.7445C1.03806 18.8005 1.06674 18.8518 1.10749 18.8925C1.14824 18.9333 1.19946 18.9619 1.25549 18.9754C1.31152 18.9888 1.37019 18.9866 1.425 18.9688L7.27812 17C7.32146 16.9848 7.36096 16.9603 7.39374 16.9281L17.925 6.4L18.3906 5.9375C18.676 5.65381 18.9022 5.31634 19.0561 4.94459C19.2101 4.57284 19.2887 4.17425 19.2875 3.77187ZM16.2281 1.3375C16.7097 1.3373 17.1806 1.47996 17.5811 1.74744C17.9816 2.01492 18.2938 2.39519 18.4781 2.84014C18.6625 3.28509 18.7107 3.77472 18.6167 4.24709C18.5227 4.71944 18.2906 5.15328 17.95 5.49375L17.7062 5.7375L14.2687 2.3L14.5125 2.05625C14.7371 1.82943 15.0042 1.64918 15.2986 1.52584C15.5931 1.4025 15.9089 1.3385 16.2281 1.3375ZM7.18749 16.25L3.74999 12.8125L13.8219 2.7375L17.2594 6.175L7.18749 16.25ZM3.43749 13.4L6.59999 16.5625L1.82187 18.1781L3.43749 13.4Z" fill="black"/>
</svg>
