<?xml version="1.0" standalone="no"?>
<!DOCTYPE svg PUBLIC "-//W3C//DTD SVG 20010904//EN"
 "http://www.w3.org/TR/2001/REC-SVG-20010904/DTD/svg10.dtd">
<svg version="1.0" xmlns="http://www.w3.org/2000/svg"
 width="612.000000pt" height="612.000000pt" viewBox="0 0 612.000000 612.000000"
 preserveAspectRatio="xMidYMid meet">
<metadata>
Created by potrace 1.14, written by Peter Selinger 2001-2017
</metadata>
<g transform="translate(0.000000,612.000000) scale(0.100000,-0.100000)"
fill="#000000" stroke="none">
<path d="M3550 4869 c-36 -11 -79 -18 -97 -15 -21 3 -33 0 -37 -9 -6 -17 -77
-54 -91 -48 -11 3 -170 -164 -216 -226 -14 -20 -42 -65 -63 -101 -21 -36 -48
-83 -61 -105 -13 -21 -22 -42 -19 -46 2 -4 -5 -37 -17 -74 -24 -79 -24 -85
-15 -275 4 -80 7 -164 6 -187 0 -24 4 -52 10 -64 6 -11 13 -64 15 -117 6 -128
21 -288 33 -334 5 -20 19 -52 30 -70 10 -18 20 -49 20 -69 1 -20 8 -56 17 -80
41 -111 43 -159 7 -159 -10 0 -26 -6 -37 -13 -30 -21 -84 -28 -107 -16 -33 18
-141 13 -180 -7 -38 -20 -248 -43 -343 -37 -33 2 -80 -3 -106 -10 -26 -8 -69
-12 -100 -9 -42 3 -58 0 -68 -12 -9 -11 -30 -16 -67 -16 -47 0 -54 2 -54 20 0
28 -19 25 -30 -4 -5 -14 -20 -32 -33 -41 -30 -19 -140 -205 -122 -205 2 0 27
36 56 80 47 74 72 93 92 74 4 -4 -7 -24 -23 -44 -37 -46 -37 -53 -4 -35 37 19
66 52 51 58 -7 3 -5 6 5 6 33 2 108 -142 92 -176 -4 -10 -6 -21 -6 -26 4 -19
-21 -103 -35 -119 -45 -50 -137 8 -168 106 -5 16 -10 13 -37 -23 -35 -44 -52
-51 -62 -24 -6 15 -8 14 -21 -5 -9 -11 -42 -37 -75 -57 -33 -20 -60 -40 -60
-45 0 -20 -112 -128 -149 -145 -23 -10 -41 -22 -41 -26 0 -5 -27 -40 -60 -78
-32 -38 -76 -100 -96 -137 -20 -38 -42 -76 -48 -84 -19 -26 -36 -59 -36 -72 0
-7 -31 -47 -69 -88 -39 -41 -82 -101 -98 -132 -15 -32 -33 -58 -39 -58 -6 0
-17 -12 -25 -28 -22 -43 -22 -49 0 -23 12 13 21 19 21 14 0 -14 -111 -133
-125 -133 -13 0 -52 -55 -73 -103 -15 -35 -15 -40 0 -31 8 5 9 2 5 -10 -4 -10
-7 -20 -7 -22 0 -3 -4 -3 -9 0 -5 3 -16 -15 -26 -40 l-17 -45 107 -114 c170
-183 414 -382 625 -511 150 -91 427 -223 535 -255 25 -8 33 -5 46 13 l17 22
15 -35 c13 -32 21 -37 103 -62 699 -211 1527 -152 2149 154 104 51 120 62 121
84 1 14 -1 23 -5 20 -17 -10 13 260 30 282 12 15 12 16 -3 10 -10 -3 -18 -2
-18 3 0 40 178 16 393 -53 l47 -15 83 66 c94 76 264 238 279 266 7 13 7 21 -2
26 -10 6 -11 30 -6 96 4 49 6 96 6 104 -1 8 -2 62 -3 120 -1 58 -5 110 -8 115
-11 17 -21 125 -12 125 12 0 4 71 -9 87 -13 16 -1 123 14 123 13 0 3 57 -18
99 -8 17 -17 51 -19 76 -2 25 -15 69 -28 98 -26 57 -74 120 -86 112 -12 -7
-108 97 -134 145 -16 31 -31 46 -48 49 -31 4 -36 13 -44 76 -4 27 -12 56 -17
63 -21 25 -288 7 -288 -20 0 -4 -4 -8 -10 -8 -5 0 -7 6 -4 14 3 7 -3 16 -13
20 -10 3 -24 9 -32 12 -10 5 -11 2 -6 -7 5 -8 -7 2 -26 21 -37 39 -95 70 -128
70 -28 0 -53 41 -56 95 -2 27 -17 71 -35 107 -38 72 -44 96 -42 166 1 29 -2
50 -7 48 -4 -3 -3 17 3 45 7 27 15 49 20 49 13 -2 24 19 42 78 13 42 23 58 54
77 50 31 51 34 38 83 -10 39 -8 45 16 77 15 20 30 34 34 31 4 -2 8 14 9 35 0
21 -1 39 -3 39 -2 0 -10 -16 -18 -35 -9 -20 -22 -35 -31 -35 -14 0 -13 4 4 29
12 16 21 35 21 43 0 17 24 86 33 94 7 8 12 -95 8 -155 -1 -19 -14 -57 -29 -85
-34 -64 -38 -74 -24 -61 6 6 23 35 38 65 25 48 28 65 27 140 -2 78 1 90 32
151 35 68 56 166 38 178 -6 3 -13 87 -17 196 -8 207 -15 266 -33 272 -12 4
-10 -29 7 -130 7 -46 7 -47 -11 -31 -11 9 -20 29 -20 43 -1 25 -2 25 -8 -4 -7
-28 -17 46 -24 175 -2 37 -27 100 -39 100 -5 0 -8 9 -8 19 0 11 -4 23 -10 26
-5 3 -10 12 -10 18 0 7 4 6 10 -3 18 -28 10 -1 -10 36 -12 20 -18 39 -15 43 8
7 45 -36 45 -53 0 -7 12 -37 26 -67 15 -30 35 -79 45 -109 20 -61 25 -37 8 37
-13 57 -29 92 -68 153 -16 25 -30 54 -30 66 -1 20 -54 79 -65 72 -3 -1 -22 10
-42 25 -39 32 -58 29 -29 -3 10 -11 13 -20 8 -20 -17 0 -45 48 -31 52 22 8 -2
25 -89 63 -48 22 -94 45 -101 52 -7 7 -29 15 -50 18 -20 3 -61 10 -91 15 -90
16 -238 11 -311 -11z m150 -9 c0 -5 -4 -10 -10 -10 -5 0 -10 5 -10 10 0 6 5
10 10 10 6 0 10 -4 10 -10z m85 0 c-3 -5 -18 -10 -33 -10 -20 0 -23 -3 -14
-12 17 -17 15 -24 -10 -25 -31 -1 -118 19 -118 28 0 3 21 2 48 -2 37 -7 49 -6
57 5 9 12 23 17 68 25 5 0 5 -3 2 -9z m-137 -105 c13 -11 -19 -10 -48 1 l-35
13 40 -6 c22 -3 41 -7 43 -8z m507 -15 c19 -8 19 -9 -2 -9 -12 -1 -25 4 -28 9
-7 12 2 12 30 0z m-458 -76 c-3 -3 -12 -4 -19 -1 -8 3 -5 6 6 6 11 1 17 -2 13
-5z m623 -49 c14 -19 14 -19 -2 -6 -10 7 -18 18 -18 24 0 6 1 8 3 6 1 -2 9
-13 17 -24z m-600 -345 c0 -5 -7 -10 -16 -10 -8 0 -12 5 -9 10 3 6 10 10 16
10 5 0 9 -4 9 -10z m30 -40 c5 8 20 9 46 4 l39 -7 -33 -9 c-18 -5 -30 -13 -27
-18 8 -13 35 -13 35 0 0 6 5 10 10 10 6 0 10 -6 10 -14 0 -8 8 -17 18 -19 10
-3 6 -5 -10 -6 -16 0 -28 -5 -28 -11 0 -16 -22 -12 -36 8 -8 10 -13 12 -14 5
0 -19 -33 -16 -56 5 -11 10 -24 17 -30 15 -7 -2 -14 3 -18 12 -5 14 -1 15 24
10 19 -4 30 -3 30 4 0 6 -7 11 -15 11 -8 0 -15 5 -15 10 0 6 14 3 31 -6 23
-12 34 -13 39 -4z m107 -12 c-3 -8 -6 -5 -6 6 -1 11 2 17 5 13 3 -3 4 -12 1
-19z m620 -135 c-3 -2 -1 -19 3 -38 6 -26 5 -32 -6 -28 -9 3 -14 20 -14 45 0
25 4 37 11 33 6 -4 8 -9 6 -12z m-675 -15 c39 -22 65 -52 72 -80 5 -22 3 -26
-9 -22 -8 4 -17 -1 -21 -9 -3 -9 -12 -13 -20 -10 -8 3 -14 0 -14 -7 0 -6 -5
-8 -10 -5 -6 4 -18 1 -27 -7 -14 -11 -16 -11 -8 1 6 11 4 13 -8 8 -9 -3 -18
-1 -20 6 -3 9 -7 9 -19 -1 -13 -10 -17 -10 -22 4 -3 8 -6 26 -6 39 0 13 -4 25
-10 27 -17 6 6 29 36 34 16 3 33 12 37 20 10 17 21 18 49 2z m-338 -21 c-2 -7
3 -13 13 -14 29 -2 116 -23 121 -28 3 -3 0 -17 -7 -32 -10 -21 -14 -24 -21
-13 -7 11 -11 8 -20 -14 -8 -21 -14 -26 -22 -18 -6 6 -17 8 -24 5 -8 -3 -21 0
-29 7 -10 9 -15 9 -15 1 0 -16 -30 -13 -36 4 -4 8 -10 12 -15 9 -5 -3 -7 -8
-5 -12 2 -4 -9 -7 -26 -8 -19 -1 -25 2 -16 7 10 6 10 11 0 21 -9 9 -12 9 -12
0 0 -14 -48 -16 -69 -3 -12 7 -12 13 0 40 14 31 24 38 33 23 7 -11 76 -2 76
10 0 6 8 8 18 6 10 -3 27 1 37 8 23 17 26 17 19 1z m1017 -166 c-8 -55 -9 -55
-9 29 0 63 2 77 8 56 5 -16 5 -54 1 -85z m-556 -52 c10 -15 -1 -23 -20 -15 -9
3 -13 10 -10 16 8 13 22 13 30 -1z m-307 -72 c11 -13 8 -103 -4 -160 -4 -17 0
-37 10 -52 9 -13 16 -40 16 -59 0 -19 6 -36 13 -39 18 -6 -51 -39 -71 -33 -9
3 -34 6 -55 8 -21 1 -41 6 -43 10 -3 4 -12 8 -20 8 -8 0 -13 -4 -9 -9 6 -10
-33 -26 -42 -17 -7 6 16 29 45 45 13 7 22 21 22 36 0 13 4 26 9 30 6 3 13 27
16 53 20 147 72 229 113 179z m302 3 c0 -5 -7 -7 -15 -4 -8 4 -15 8 -15 10 0
2 7 4 15 4 8 0 15 -4 15 -10z m-603 -6 c-3 -3 -12 -4 -19 -1 -8 3 -5 6 6 6 11
1 17 -2 13 -5z m521 -212 c11 -14 16 -15 34 -3 18 11 20 11 15 -2 -7 -18 28
-28 98 -29 24 -1 43 -4 43 -7 -3 -13 14 -87 22 -103 15 -26 -58 -98 -99 -98
-21 0 -31 5 -31 15 0 8 -4 15 -10 15 -5 0 -10 5 -10 11 0 12 -43 62 -117 134
-49 48 -51 51 -35 72 20 24 68 22 90 -5z m-460 -22 c15 0 15 2 2 10 -8 5 -10
10 -4 10 6 0 17 -6 23 -13 14 -18 -8 -80 -26 -73 -7 3 -13 1 -13 -4 0 -6 -7
-10 -15 -10 -8 0 -15 -5 -15 -10 0 -6 -11 -8 -26 -4 -22 6 -25 4 -22 -12 2
-11 10 -18 16 -16 17 3 14 -9 -7 -35 -23 -27 -48 -31 -88 -14 -18 7 -38 11
-45 9 -13 -5 -50 26 -42 35 8 8 -18 67 -27 61 -17 -10 -21 25 -5 42 9 8 14 19
12 22 -2 4 7 7 20 7 13 0 24 -3 24 -7 0 -13 149 -7 182 7 18 7 34 9 36 4 2 -5
11 -9 20 -9z m-321 -52 c-2 -13 -4 -3 -4 22 0 25 2 35 4 23 2 -13 2 -33 0 -45z
m1269 -86 c-23 -23 -33 -6 -10 19 12 13 20 16 22 9 3 -7 -3 -19 -12 -28z
m-556 -52 c-21 -13 -15 -62 10 -82 17 -14 19 -18 6 -18 -9 0 -16 -4 -16 -9 0
-5 -13 -14 -30 -20 -27 -9 -30 -8 -30 12 0 12 -5 29 -10 37 -7 12 -10 8 -10
-15 l0 -30 -57 2 c-32 2 -63 5 -70 7 -6 3 -14 -2 -17 -10 -3 -8 -18 -14 -35
-14 -25 0 -30 5 -37 32 -3 18 -14 38 -23 45 -25 19 -2 15 27 -5 35 -23 79 -21
139 5 26 12 65 25 86 28 27 4 41 13 49 30 6 14 15 22 21 18 5 -3 4 -9 -3 -13z
m570 -34 c-4 -12 -15 -20 -24 -18 -9 2 -15 -2 -14 -9 2 -6 -2 -13 -9 -16 -9
-3 -9 3 0 26 9 25 12 27 22 14 11 -14 13 -13 18 6 3 11 1 21 -5 21 -5 0 -6 5
-2 11 11 18 23 -11 14 -35z m-50 16 c0 -10 -7 -27 -15 -38 -13 -17 -13 -15 -3
19 12 41 18 47 18 19z m-505 -42 c3 -5 1 -10 -4 -10 -6 0 -11 5 -11 10 0 6 2
10 4 10 3 0 8 -4 11 -10z m50 -30 c3 -5 1 -10 -4 -10 -6 0 -11 5 -11 10 0 6 2
10 4 10 3 0 8 -4 11 -10z m411 -83 c-8 -32 -16 -60 -19 -63 -8 -9 5 90 15 109
16 32 18 14 4 -46z m-1179 21 c-3 -8 -6 -5 -6 6 -1 11 2 17 5 13 3 -3 4 -12 1
-19z m543 -39 c0 -5 -4 -9 -10 -9 -5 0 -10 7 -10 16 0 8 5 12 10 9 6 -3 10
-10 10 -16z m-90 1 c0 -5 -4 -10 -10 -10 -5 0 -10 5 -10 10 0 6 5 10 10 10 6
0 10 -4 10 -10z m371 -93 c-10 -9 -11 -8 -5 6 3 10 9 15 12 12 3 -3 0 -11 -7
-18z m-383 -52 c-3 -3 -9 2 -12 12 -6 14 -5 15 5 6 7 -7 10 -15 7 -18z m692
-45 c0 -5 -5 -10 -11 -10 -5 0 -7 5 -4 10 3 6 8 10 11 10 2 0 4 -4 4 -10z
m-39 -171 l-9 -34 -1 35 c0 19 3 46 7 60 l7 25 3 -26 c2 -15 -1 -42 -7 -60z
m-513 24 c34 -4 45 -10 52 -29 5 -13 15 -24 22 -25 7 0 2 -5 -12 -11 -14 -6
-29 -10 -35 -9 -5 1 -22 3 -37 3 -15 1 -25 5 -22 10 3 4 -1 15 -10 23 -21 21
-29 19 -16 -5 9 -17 8 -20 -12 -20 -38 0 -49 13 -42 49 6 31 9 32 38 26 17 -3
50 -9 74 -12z m-331 -105 c-7 -4 20 -8 59 -8 44 0 98 -8 140 -21 84 -26 108
-38 168 -84 48 -36 53 -37 36 -4 -7 12 -7 19 -1 19 13 0 19 -11 59 -100 26
-58 35 -92 37 -150 3 -52 2 -66 -4 -45 l-9 30 -1 -30 c-1 -20 -4 -26 -9 -17
-6 9 -12 5 -20 -13 -7 -14 -12 -34 -13 -43 0 -14 -2 -13 -9 3 -9 22 -7 25 -35
-55 -9 -25 -25 -70 -36 -100 -12 -30 -22 -75 -24 -100 -4 -38 -83 -276 -140
-418 -18 -45 -67 -88 -86 -76 -7 4 -9 3 -6 -3 9 -14 -60 -33 -120 -33 -54 0
-142 23 -182 48 -62 38 -122 109 -121 144 1 7 8 -3 16 -22 19 -44 23 -47 35
-30 8 12 9 10 4 -7 -5 -17 2 -27 31 -47 29 -19 41 -23 51 -14 10 8 20 8 36 0
67 -33 177 -40 210 -15 21 17 75 23 81 10 2 -7 5 -5 5 5 1 9 7 19 14 21 6 3
-4 5 -25 4 -20 -1 -34 -5 -31 -9 2 -5 -7 -8 -21 -8 -14 0 -26 2 -26 5 0 10 52
55 59 51 4 -3 19 8 32 23 21 25 25 26 37 12 8 -10 7 -2 -3 24 -21 52 -59 91
-120 123 -65 34 -209 43 -269 18 -55 -23 -101 -20 -144 9 -20 14 -42 25 -48
25 -7 0 -14 7 -18 15 -3 8 -17 15 -31 15 -30 0 -105 17 -159 37 -33 12 -41 12
-62 -2 -28 -18 -71 -20 -77 -2 -6 17 -38 -11 -36 -32 1 -9 -3 -27 -8 -41 -7
-16 -7 -27 -1 -31 6 -4 2 -15 -11 -28 -11 -11 -21 -25 -21 -31 0 -23 -25 -60
-39 -58 -9 2 -20 -7 -26 -19 -5 -13 -13 -23 -17 -23 -5 0 -8 -7 -8 -15 0 -8
-4 -15 -10 -15 -5 0 -18 -8 -28 -18 -10 -10 -36 -27 -57 -38 -28 -15 -41 -29
-48 -53 -7 -28 -11 -32 -32 -27 -14 4 -29 0 -38 -9 -12 -11 -17 -12 -20 -2 -4
9 -8 8 -17 -3 -8 -10 -13 -11 -16 -3 -6 14 -58 7 -96 -13 -15 -8 -33 -14 -40
-14 -7 0 -19 -9 -26 -20 -7 -11 -21 -20 -31 -20 -11 0 -21 -6 -24 -12 -3 -10
-10 -8 -23 5 -10 9 -13 17 -7 17 6 0 11 11 11 24 -1 22 -3 23 -19 13 -11 -7
-19 -20 -19 -29 0 -10 -7 -18 -15 -18 -24 0 -17 -18 8 -22 12 -2 20 -7 17 -13
-5 -10 -22 -11 -50 -4 -9 3 -14 -3 -14 -13 1 -10 -3 -18 -10 -19 -6 0 -1 -4
12 -9 32 -13 28 -31 -6 -24 -19 4 -39 -1 -60 -13 -29 -18 -30 -21 -17 -39 8
-10 15 -25 15 -33 0 -22 -40 18 -57 56 -15 37 -42 43 -50 12 -4 -14 -8 -17
-13 -8 -11 18 -43 -48 -37 -77 2 -13 0 -24 -4 -24 -5 0 -9 15 -9 34 0 33 -1
34 -32 30 -18 -3 -43 -7 -56 -10 -26 -5 -71 -51 -72 -71 0 -7 -4 -13 -9 -13
-5 0 -12 -8 -14 -18 -2 -9 -3 -4 -1 11 2 17 0 26 -6 22 -6 -3 -10 3 -10 14 0
17 -6 21 -36 21 -32 0 -36 -2 -31 -22 2 -13 2 -34 -2 -47 l-7 -25 -27 28 c-15
15 -27 32 -27 39 0 7 -6 4 -14 -5 -18 -24 -76 -23 -119 2 l-35 21 -7 -41 c-5
-30 -11 -40 -26 -40 -11 0 -19 -7 -19 -16 0 -8 -4 -13 -9 -10 -5 4 0 25 11 47
14 29 18 52 14 75 -5 25 -3 35 10 42 12 7 15 15 9 28 -5 13 -9 15 -12 6 -3 -6
-10 -9 -15 -6 -7 5 -8 2 -4 -5 5 -8 0 -14 -15 -18 -22 -6 -22 -7 -3 -14 14 -5
7 -8 -23 -8 -36 -1 -41 1 -36 19 3 11 9 20 14 20 4 0 11 16 15 35 3 19 10 35
15 35 5 0 9 6 9 14 0 7 7 19 15 26 8 7 13 16 10 20 -5 9 33 23 95 36 49 10
201 7 271 -6 43 -8 76 -8 122 0 61 11 236 73 422 148 27 11 51 19 53 17 2 -2
-8 -16 -22 -31 -42 -46 -19 -40 28 7 27 26 68 53 103 67 32 13 74 31 93 40 54
26 57 26 26 0 -24 -21 -26 -25 -10 -25 10 0 27 8 38 18 10 10 22 16 26 14 4
-2 12 7 19 21 14 31 14 37 -1 28 -7 -4 -8 -3 -4 5 4 6 12 9 17 6 5 -4 9 -1 9
5 0 6 6 8 13 5 6 -4 4 0 -7 9 -18 15 -17 18 25 88 44 75 62 112 119 253 17 44
38 92 46 107 8 14 14 38 14 52 0 23 4 26 37 26 33 0 45 9 135 102 l98 102 -30
12 c-30 13 -44 29 -15 18 21 -8 78 13 92 35 10 16 7 20 -27 30 -22 6 -42 17
-46 23 -4 7 -3 8 5 4 33 -21 161 19 161 49 0 15 33 45 48 45 9 0 5 -8 -12 -21
-14 -11 -26 -27 -26 -35 0 -8 -6 -14 -12 -15 -7 -1 -2 -4 12 -8 32 -10 50 -3
50 18 1 14 2 14 14 -1 21 -29 62 -21 121 22 30 22 63 40 75 40 11 0 20 6 20
13 0 6 11 17 25 24 14 6 23 7 19 2 -3 -5 0 -9 5 -9 6 0 11 7 11 15 0 13 3 13
20 3 14 -9 16 -14 7 -20z m150 26 c-3 -3 -12 -4 -19 -1 -8 3 -5 6 6 6 11 1 17
-2 13 -5z m-477 -105 c-7 -11 -14 -19 -16 -16 -7 7 7 37 17 37 6 0 5 -9 -1
-21z m-766 -131 c49 -14 68 -27 59 -41 -3 -5 2 -16 12 -24 11 -7 17 -13 14
-13 -2 0 -41 -3 -86 -6 -74 -5 -84 -4 -90 12 -4 10 -2 19 5 22 18 6 15 22 -4
22 -9 0 -14 6 -12 12 4 10 17 17 57 27 2 1 22 -4 45 -11z m2086 -3 c0 -8 -2
-15 -4 -15 -2 0 -6 7 -10 15 -3 8 -1 15 4 15 6 0 10 -7 10 -15z m0 -33 c0 -4
-9 -13 -20 -20 -22 -13 -23 -12 -14 12 6 16 34 23 34 8z m500 -38 c0 -11 -15
-14 -72 -13 -63 2 -67 3 -33 9 22 4 33 8 25 10 -8 2 3 6 25 9 46 8 55 5 55
-15z m-261 -27 c-2 -2 -21 -15 -41 -30 -21 -16 -38 -25 -38 -22 0 12 53 55 68
55 8 0 13 -1 11 -3z m-273 -59 c-7 -54 -22 -82 -37 -72 -5 3 -6 -2 -3 -10 3
-9 2 -16 -4 -16 -15 0 -7 48 12 69 13 15 14 20 4 24 -8 4 -7 6 5 6 9 1 17 8
17 16 0 9 -6 12 -17 9 -15 -5 -15 -3 1 10 11 9 22 16 24 16 3 0 1 -24 -2 -52z
m-2556 1 c-10 -22 -90 -78 -90 -63 0 8 94 94 98 90 1 -2 -2 -14 -8 -27z m210
-47 c12 -30 19 -67 17 -81 -4 -24 -4 -24 -6 4 -1 17 -5 36 -10 44 -5 8 -7 -5
-3 -34 4 -38 1 -49 -12 -57 -13 -7 -15 -18 -11 -46 3 -20 2 -30 -1 -22 -3 8
-14 35 -24 60 -17 42 -17 95 -1 209 3 16 34 -31 51 -77z m-105 24 c-6 -36 0
-61 30 -142 20 -55 41 -107 47 -117 8 -16 7 -17 -11 -8 -23 13 -34 28 -38 54
-2 9 -14 35 -28 57 -14 22 -25 45 -25 51 0 6 -6 9 -14 6 -16 -6 -26 13 -26 48
0 21 52 95 67 95 2 0 1 -20 -2 -44z m2396 16 c-10 -3 -10 -6 -1 -12 16 -10 7
-24 -33 -51 l-32 -23 19 22 c11 12 16 22 12 22 -4 0 2 14 14 31 12 16 25 27
29 23 3 -4 0 -9 -8 -12z m-2021 -32 c0 -5 -4 -10 -9 -10 -6 0 -13 5 -16 10 -3
6 1 10 9 10 9 0 16 -4 16 -10z m2216 -35 c-11 -8 -23 -15 -28 -15 -16 0 -7
-19 12 -25 11 -4 18 -11 15 -16 -7 -10 -48 -12 -58 -3 -10 10 21 62 40 67 33
9 38 6 19 -8z m-311 -71 c-9 -14 -24 -28 -33 -31 -42 -13 -80 -34 -96 -52 -10
-11 -31 -23 -47 -26 -16 -4 -27 -11 -23 -16 3 -5 0 -9 -7 -9 -6 0 -41 -22 -78
-49 -60 -43 -122 -81 -134 -81 -15 0 -13 52 3 100 10 31 17 66 14 77 -3 11 0
24 6 28 9 5 10 1 5 -14 -8 -27 5 -27 36 0 13 11 37 28 53 36 27 14 31 14 42
-2 9 -11 19 -15 31 -11 10 4 18 6 18 4 0 -1 16 7 35 18 19 12 51 21 70 20 25
-1 39 5 48 19 11 18 12 17 7 -10 l-5 -30 13 27 c7 14 21 36 32 48 l20 22 3
-21 c2 -12 -4 -33 -13 -47z m-366 -13 c-6 -18 -13 -30 -15 -28 -2 2 1 18 7 36
6 18 13 30 15 28 2 -2 -1 -18 -7 -36z m-1804 -81 c-9 -41 -17 -33 -9 9 4 17 9
30 11 27 3 -2 2 -19 -2 -36z m1735 -87 c-11 -17 -11 -17 -6 0 3 10 6 24 7 30
0 9 2 9 5 0 3 -7 0 -20 -6 -30z m965 -90 c7 -29 -23 -135 -36 -127 -5 3 -9
-10 -9 -29 0 -19 -7 -56 -15 -83 -8 -27 -11 -52 -6 -57 4 -4 11 6 14 23 6 25
16 35 59 55 29 14 60 24 68 24 12 0 12 -2 1 -6 -11 -5 -11 -7 0 -14 10 -6 11
-9 2 -9 -7 0 -13 -4 -13 -10 0 -26 20 -5 30 31 9 34 18 43 53 58 23 10 43 18
44 16 2 -1 -7 -30 -18 -64 -24 -70 -35 -78 -141 -101 -32 -7 -58 -17 -58 -22
0 -10 49 -3 91 13 15 6 38 9 52 7 l25 -3 -31 -100 c-17 -55 -37 -106 -46 -112
-14 -11 -14 -14 -1 -23 9 -6 10 -10 3 -10 -18 0 -26 19 -14 33 7 9 5 27 -6 59
-13 42 -30 58 -63 63 -3 0 -9 3 -15 6 -24 13 -50 3 -53 -21 -2 -13 -10 -33
-18 -44 -8 -11 -14 -32 -14 -46 0 -23 -3 -26 -29 -22 -23 3 -33 -2 -50 -27
-12 -17 -19 -32 -14 -32 4 -1 -8 -5 -27 -8 -19 -4 -40 -4 -45 0 -6 4 -31 9
-55 11 -28 2 -45 8 -45 16 0 6 -3 12 -7 12 -5 0 -13 0 -19 0 -5 0 -7 -4 -4
-10 6 -9 -86 -6 -163 6 l-34 5 29 25 c15 13 51 31 80 40 54 16 69 30 171 166
24 31 49 59 56 61 8 3 34 -5 59 -19 26 -13 53 -24 62 -24 9 0 23 -13 33 -29
15 -26 18 -27 29 -13 10 15 11 14 7 -8 -4 -20 -3 -22 5 -9 8 13 5 36 -14 93
-30 93 -31 106 -5 175 38 98 60 134 75 121 7 -6 16 -22 20 -37z m275 -27 c0
-3 -4 -8 -10 -11 -5 -3 -10 -1 -10 4 0 6 5 11 10 11 6 0 10 -2 10 -4z m-1996
-109 c75 -39 83 -66 37 -116 -17 -18 -31 -29 -31 -24 0 13 -110 121 -148 145
-49 31 -40 42 25 34 33 -4 81 -19 117 -39z m2001 13 c-6 -18 -3 -20 22 -15 21
5 24 4 13 -4 -8 -6 -11 -11 -6 -11 6 0 2 -6 -8 -13 -9 -7 -16 -19 -14 -27 2
-10 -7 -16 -31 -18 l-33 -3 27 35 c15 20 22 36 16 36 -8 0 -7 6 1 20 16 26 21
25 13 0z m-65 -45 c-11 -22 -20 -46 -20 -54 0 -8 -3 -12 -6 -8 -7 7 14 76 29
95 18 23 17 6 -3 -33z m-2913 -2 c0 -10 6 -43 13 -73 10 -43 10 -61 0 -85 -11
-28 -13 -28 -20 -10 -5 11 -9 40 -9 65 -1 25 -5 59 -10 77 -7 22 -6 33 2 37
20 8 23 7 24 -11z m1089 -13 c-8 -8 -16 -24 -19 -35 -3 -11 -5 -4 -4 15 1 27
5 36 19 36 15 0 15 -3 4 -16z m-1139 -38 c1 -21 3 -43 4 -48 2 -5 -1 -34 -5
-64 -6 -43 -10 -51 -16 -35 -18 43 -8 185 13 185 2 0 3 -17 4 -38z m3142 17
c17 -6 38 -24 46 -39 l14 -27 -63 -7 c-35 -3 -74 -2 -87 2 -22 8 -21 9 12 21
30 11 32 14 14 20 -18 7 -17 9 10 20 19 7 22 10 7 7 -12 -2 -20 0 -16 5 7 12
24 11 63 -2z m-152 -65 c-3 -3 -12 -4 -19 -1 -8 3 -5 6 6 6 11 1 17 -2 13 -5z
m-1833 -20 c3 -8 2 -12 -4 -9 -6 3 -10 10 -10 16 0 14 7 11 14 -7z m1880 -8
c6 2 30 -11 51 -29 39 -34 39 -34 17 -46 -26 -14 -86 -1 -144 32 -50 27 -48
36 5 26 62 -12 73 -11 59 3 -7 7 -12 17 -11 23 0 5 3 5 5 -2 3 -7 11 -10 18
-7z m-3654 -55 c-12 -24 -30 -36 -30 -22 0 6 -5 11 -11 11 -8 0 -7 -5 2 -16
11 -13 8 -19 -17 -40 -47 -40 -101 -64 -141 -64 l-37 0 35 36 c32 34 99 75
164 101 42 16 47 16 35 -6z m1861 -11 c6 0 8 -4 4 -10 -6 -10 -45 18 -45 33 0
5 7 1 16 -7 8 -9 20 -16 25 -16z m219 -20 c0 -5 -2 -10 -4 -10 -3 0 -8 5 -11
10 -3 6 -1 10 4 10 6 0 11 -4 11 -10z m1243 -122 c-2 -5 1 -8 5 -8 4 0 8 -9 9
-21 1 -12 10 -28 20 -36 10 -8 13 -12 6 -8 -7 3 -19 -7 -28 -22 -9 -15 -14
-21 -11 -11 3 11 -3 18 -19 22 -17 4 -22 11 -18 26 3 11 0 27 -7 35 -7 9 -9
26 -5 45 l7 32 21 -23 c12 -13 21 -27 20 -31z m158 -59 c-4 -21 -15 -35 -30
-41 -19 -7 -22 -5 -17 8 3 8 6 18 6 20 0 2 8 4 18 5 11 0 12 2 4 6 -10 4 -9 8
5 19 10 7 19 14 19 14 1 0 -1 -14 -5 -31z m-87 -54 c9 -24 -54 -128 -69 -113
-2 2 3 28 13 56 14 44 20 52 37 48 19 -5 19 -4 3 8 -10 7 -18 16 -18 19 0 11
28 -4 34 -18z m-2784 -40 c0 -8 -4 -15 -10 -15 -5 0 -10 7 -10 15 0 8 5 15 10
15 6 0 10 -7 10 -15z m2020 -2 c0 -5 -26 -19 -58 -33 -69 -30 -46 -39 29 -11
29 11 54 19 56 17 2 -2 -24 -18 -57 -35 -55 -29 -70 -33 -155 -34 -71 -2 -95
1 -95 10 0 7 5 13 11 13 6 0 25 6 42 14 36 16 179 59 220 65 4 0 7 -2 7 -6z
m1236 -11 c6 -4 14 -24 17 -44 7 -43 -14 -74 -42 -63 -9 4 -22 9 -28 12 -30
12 -10 -15 22 -30 39 -19 46 -42 15 -52 -43 -14 -124 17 -177 68 -30 29 -45
56 -24 42 5 -3 12 -1 15 4 4 5 -7 12 -23 16 -16 3 -35 12 -41 20 -8 10 -5 15
17 23 32 12 233 15 249 4z m-3351 -50 c-8 -9 -25 20 -18 31 3 5 10 2 15 -7 6
-10 7 -20 3 -24z m3072 -74 c26 -29 36 -21 17 15 -39 75 -39 72 -7 49 41 -29
117 -169 106 -194 -8 -18 -13 -16 -61 27 -29 26 -49 52 -45 57 3 6 1 8 -5 4
-12 -7 -51 43 -54 70 -4 50 3 59 18 24 8 -19 22 -42 31 -52z m-3347 65 c0 -5
-4 -15 -10 -23 -11 -18 -25 -7 -17 15 6 15 27 21 27 8z m2430 -44 c0 -49 -1
-50 -27 -47 -38 4 -41 37 -7 71 15 15 28 27 30 27 2 0 4 -23 4 -51z m-89 -23
c-12 -29 -87 -81 -141 -96 -38 -11 -100 -13 -100 -5 0 3 22 28 50 56 50 50 84
69 122 69 17 0 18 -2 8 -15 -23 -28 -4 -25 31 4 37 32 45 28 30 -13z m909 -66
c5 0 12 17 15 38 4 20 8 42 9 47 2 6 14 -11 26 -37 23 -46 23 -47 5 -87 -21
-48 -40 -66 -78 -75 -26 -6 -27 -5 -17 14 7 13 17 19 26 16 9 -4 12 -2 8 5 -4
8 1 9 15 4 12 -3 21 -2 21 4 0 5 -10 12 -22 14 -21 4 -20 4 3 6 25 1 47 27 34
39 -3 3 -5 0 -5 -6 0 -7 -8 -12 -17 -12 -16 0 -16 2 -3 11 12 9 11 10 -7 6
-25 -6 -33 9 -33 59 0 21 -4 33 -10 29 -14 -9 -12 9 3 24 10 10 13 1 15 -43 2
-31 7 -56 12 -56z m-30 27 c0 -5 -5 -5 -11 -1 -8 4 -9 -3 -4 -24 3 -18 2 -33
-4 -37 -12 -7 -15 52 -5 80 5 13 8 14 15 3 5 -7 9 -17 9 -21z m-13 -99 c-3 -8
-6 -5 -6 6 -1 11 2 17 5 13 3 -3 4 -12 1 -19z m-2917 -186 c0 -5 23 -33 51
-63 29 -29 41 -46 28 -38 -16 10 -33 13 -49 8 -40 -11 -50 -10 -44 6 4 9 0 15
-10 15 -8 0 -21 10 -27 22 -10 18 -8 24 11 40 24 19 40 23 40 10z m904 -152
c7 -7 1 -7 -19 -1 -54 17 -61 21 -25 16 19 -3 39 -10 44 -15z m944 -137 c33
-21 44 -35 79 -91 23 -39 24 -45 10 -59 -13 -14 -20 -12 -61 12 -58 34 -86 69
-86 107 0 26 3 29 23 22 12 -3 29 -11 38 -18 8 -6 2 1 -15 17 -34 31 -29 35
12 10z m390 -112 c-3 -13 -6 -13 -25 6 -12 12 -25 18 -29 15 -4 -4 1 8 12 26
l19 33 13 -32 c7 -17 12 -39 10 -48z m-2378 -9 c0 -5 -7 -9 -15 -9 -8 0 -15 4
-15 9 0 4 7 8 15 8 8 0 15 -4 15 -8z"/>
<path d="M3683 3273 c9 -2 23 -2 30 0 6 3 -1 5 -18 5 -16 0 -22 -2 -12 -5z"/>
<path d="M3518 3203 c7 -3 16 -2 19 1 4 3 -2 6 -13 5 -11 0 -14 -3 -6 -6z"/>
<path d="M3197 2529 c3 -10 9 -16 14 -13 13 8 11 21 -5 27 -10 4 -12 0 -9 -14z"/>
<path d="M3028 2479 c-19 -4 -17 -7 17 -13 54 -10 120 -40 156 -71 29 -23 32
-24 60 -10 31 16 41 39 12 28 -10 -4 -14 -2 -10 4 6 10 -17 17 -88 29 -10 2
-16 4 -32 9 -5 2 -19 6 -31 10 -15 5 -20 10 -12 15 13 8 -36 8 -72 -1z"/>
<path d="M2855 2353 c-11 -2 -36 -17 -55 -33 l-35 -29 38 -1 c69 0 190 -51
289 -121 36 -26 188 -28 213 -3 20 20 13 29 -12 16 -12 -7 -25 -7 -34 -1 -7 5
-10 9 -6 9 9 0 -18 30 -27 30 -9 0 -131 83 -134 92 -2 5 -24 8 -48 8 -25 0
-57 6 -72 14 -31 16 -88 25 -117 19z m172 -86 c4 -6 -2 -8 -15 -5 -12 3 -23 1
-25 -5 -4 -14 -27 0 -27 17 0 15 57 9 67 -7z"/>
<path d="M2729 2148 c-14 -5 -32 -20 -39 -33 -7 -14 -22 -27 -32 -31 -25 -8
-50 -47 -42 -68 5 -13 17 -15 73 -10 58 5 75 2 148 -26 46 -17 108 -49 139
-70 l56 -38 32 18 c17 10 48 23 68 29 20 7 42 19 49 27 10 12 9 13 -4 9 -15
-6 -36 7 -83 53 -13 13 -29 20 -36 16 -6 -4 -8 -3 -5 3 8 13 -39 47 -88 63
-22 7 -49 17 -60 22 -58 25 -152 44 -176 36z m210 -114 c17 -37 8 -39 -13 -4
-9 17 -13 30 -8 30 5 0 14 -12 21 -26z m101 -33 c0 -6 -4 -13 -10 -16 -5 -3
-10 1 -10 9 0 9 5 16 10 16 6 0 10 -4 10 -9z"/>
<path d="M2366 1815 c-4 -14 -11 -25 -16 -25 -6 0 -10 -5 -10 -11 0 -17 19 0
35 32 9 16 11 29 6 29 -5 0 -12 -11 -15 -25z"/>
<path d="M2311 1654 c0 -11 3 -14 6 -6 3 7 2 16 -1 19 -3 4 -6 -2 -5 -13z"/>
<path d="M3141 1511 c-10 -6 -9 -10 3 -14 8 -3 18 -2 21 3 8 13 -9 20 -24 11z"/>
<path d="M3175 1490 c-3 -5 1 -10 10 -10 9 0 13 5 10 10 -3 6 -8 10 -10 10 -2
0 -7 -4 -10 -10z"/>
<path d="M3220 1481 c8 -5 26 -12 40 -15 l25 -7 -25 15 c-14 9 -32 15 -40 15
-13 0 -13 -1 0 -8z"/>
<path d="M1060 1360 c-18 -12 -2 -12 25 0 13 6 15 9 5 9 -8 0 -22 -4 -30 -9z"/>
<path d="M2166 2460 c3 -14 10 -32 15 -40 7 -12 8 -11 9 6 0 11 -7 29 -16 40
-14 18 -15 18 -8 -6z"/>
<path d="M1770 2235 c0 -8 4 -15 10 -15 5 0 7 7 4 15 -4 8 -8 15 -10 15 -2 0
-4 -7 -4 -15z"/>
<path d="M3813 2135 c-3 -9 -3 -18 -1 -21 3 -3 8 4 11 16 6 23 -1 27 -10 5z"/>
<path d="M4625 1645 c-30 -13 -30 -13 -4 -14 14 -1 34 6 45 14 25 19 1 19 -41
0z"/>
<path d="M4715 1570 c-3 -5 3 -10 15 -10 12 0 18 5 15 10 -3 6 -10 10 -15 10
-5 0 -12 -4 -15 -10z"/>
<path d="M4334 1557 c-8 -22 -1 -30 21 -25 14 3 14 5 1 23 -14 19 -15 19 -22
2z"/>
<path d="M4260 1478 c0 -5 -4 -6 -10 -3 -15 9 -12 -11 3 -24 11 -8 20 -6 37 9
13 11 21 21 19 21 -19 6 -49 4 -49 -3z"/>
<path d="M4960 1650 c-13 -8 -13 -10 2 -10 9 0 20 5 23 10 8 13 -5 13 -25 0z"/>
<path d="M4850 1586 c0 -2 7 -6 15 -10 8 -3 15 -1 15 4 0 6 -7 10 -15 10 -8 0
-15 -2 -15 -4z"/>
<path d="M4956 1562 c-2 -4 4 -9 15 -9 11 -1 17 2 14 8 -7 11 -22 12 -29 1z"/>
<path d="M5050 1231 c0 -6 -15 -12 -32 -12 -24 -1 -27 -3 -10 -6 12 -2 20 -9
16 -14 -3 -5 -2 -9 3 -8 20 3 32 -2 29 -13 -1 -7 -1 -10 1 -5 3 4 23 10 44 13
33 6 40 10 37 28 -2 17 -11 22 -45 24 -26 2 -43 -1 -43 -7z m58 -8 c-10 -2
-26 -2 -35 0 -10 3 -2 5 17 5 19 0 27 -2 18 -5z"/>
<path d="M4884 1222 c3 -5 23 -15 46 -22 28 -9 37 -16 28 -22 -18 -11 9 -10
37 2 18 7 14 10 -25 29 -45 21 -96 28 -86 13z"/>
<path d="M5080 1166 c0 -2 7 -7 16 -10 8 -3 12 -2 9 4 -6 10 -25 14 -25 6z"/>
<path d="M5125 1160 c3 -5 8 -10 11 -10 2 0 4 5 4 10 0 6 -5 10 -11 10 -5 0
-7 -4 -4 -10z"/>
<path d="M5095 1080 c-19 -8 -19 -9 2 -9 12 -1 25 4 28 9 7 12 -2 12 -30 0z"/>
<path d="M4887 1069 c7 -7 15 -10 18 -7 3 3 -2 9 -12 12 -14 6 -15 5 -6 -5z"/>
<path d="M4392 3375 c-17 -37 -14 -45 4 -12 9 16 14 31 11 33 -2 2 -9 -7 -15
-21z"/>
<path d="M4221 3034 c0 -11 3 -14 6 -6 3 7 2 16 -1 19 -3 4 -6 -2 -5 -13z"/>
<path d="M2020 2645 c0 -8 4 -15 10 -15 5 0 7 7 4 15 -4 8 -8 15 -10 15 -2 0
-4 -7 -4 -15z"/>
</g>
</svg>
